<svg width="16" height="16" viewBox="0 0 16 16" fill="none" xmlns="http://www.w3.org/2000/svg">
<path d="M7.91813 16C4.13115 15.9082 1.00598 13.3654 0.192661 9.73872C-0.849908 5.08971 2.45913 0.517669 7.21203 0.0401791C11.6232 -0.402977 15.5872 2.87219 15.9595 7.2704C15.9846 7.56736 15.9975 7.86624 15.9979 8.16425C16.0012 10.2755 15.9996 12.3869 15.9996 14.4982C15.9996 14.6119 15.9996 14.7256 15.9996 14.9472C15.5863 14.6522 15.2315 14.4249 14.9073 14.1603C14.587 13.8987 14.2978 13.5994 13.9899 13.3119C12.3462 15.0525 10.3539 15.9892 7.91813 16ZM8.35017 4.03051C6.09148 3.85079 4.21085 5.47348 4.01948 7.7672C3.84358 9.87544 5.50612 11.797 7.67159 11.9859C10.0316 12.1917 11.8525 10.3412 12.0041 8.28061C12.157 6.20221 10.5522 4.26256 8.35017 4.03051Z" fill="#E51D25"/>
</svg>
